<?xml version="1.0" encoding="utf-8"?>
<!-- Generator: Adobe Illustrator 19.2.1, SVG Export Plug-In . SVG Version: 6.00 Build 0)  -->
<svg version="1.1" id="Layer_1" xmlns="http://www.w3.org/2000/svg" xmlns:xlink="http://www.w3.org/1999/xlink" x="0px" y="0px"
	 viewBox="0 0 98 150" style="enable-background:new 0 0 98 150;" xml:space="preserve">
<style type="text/css">
	.st0{fill:#B3C471;}
	.st1{fill:#CAD681;}
	.st2{fill:#585948;}
	.st3{fill:#7D1F4D;}
	.st4{fill:#FFFFFF;}
	.st5{fill:#5CD7FF;}
	.st6{fill:#7BF0D3;}
	.st7{fill:#4579B3;}
	.st8{fill:#E75C54;}
	.st9{fill:#FFE75B;}
	.st10{fill:#C55049;}
	.st11{fill:#E3B347;}
	.st12{fill:#A54242;}
	.st13{fill:#F7CC46;}
	.st14{fill:#E5B72D;}
	.st15{fill:#644E35;}
	.st16{opacity:0.2;}
	.st17{fill:#E5A13F;}
	.st18{fill:#A0A1A4;}
	.st19{fill:#6A5C4F;}
	.st20{fill:#D8F0F3;}
	.st21{fill:#64574B;}
	.st22{fill:#B6D7E0;}
	.st23{fill:#564B40;}
	.st24{fill:#99BCC8;}
	.st25{fill:#49494B;}
	.st26{fill:#EAFFFF;}
	.st27{fill:#756557;}
	.st28{fill:#383A3B;}
	.st29{fill:#2EB67F;}
	.st30{fill:#6D6D70;}
	.st31{fill:#59595B;}
	.st32{fill:#51DEFF;}
	.st33{fill:#40E0D6;}
	.st34{fill:#8FD7FF;}
	.st35{fill:#40CFE9;}
	.st36{fill:#3ED1BC;}
	.st37{fill:#8EB9FF;}
	.st38{fill:#425DB4;}
	.st39{fill:#F2557C;}
	.st40{fill:#CE3A62;}
	.st41{fill:#E3396F;}
	.st42{fill:#F4B0C5;}
	.st43{fill:#E73B60;}
	.st44{fill:#C5284C;}
	.st45{fill:#D92756;}
	.st46{fill:#EAEBEB;}
	.st47{clip-path:url(#SVGID_2_);fill:#E5E5E5;}
	.st48{fill:#D3D3D3;}
	.st49{fill:#E5E5E5;}
	.st50{fill:#254DAA;}
	.st51{fill:#214599;}
	.st52{fill:#F7ACAF;}
	.st53{fill:#EB2E38;}
	.st54{fill:#FFD66F;}
	.st55{fill:#CFA353;}
	.st56{fill:#CFC3BE;}
	.st57{fill:#87685C;}
	.st58{fill:#82D5A2;}
	.st59{fill:#56C681;}
	.st60{fill:#4AB569;}
	.st61{fill:#65CB8C;}
	.st62{fill:#DFE0E1;}
	.st63{fill:#1C9046;}
	.st64{fill:#76D8E8;}
	.st65{fill:#D393FF;}
	.st66{fill:#76D0E3;}
	.st67{fill:#D888FF;}
	.st68{fill:#715D94;}
	.st69{fill:#EA5FC9;}
	.st70{fill:#E04849;}
	.st71{fill:#F4CA94;}
	.st72{fill:#FC5B5A;}
	.st73{fill:#FC88E3;}
	.st74{fill:#FCAA52;}
	.st75{fill:#FDC866;}
	.st76{fill:#7A6CBE;}
	.st77{fill:#9480BE;}
	.st78{fill:#57CC76;}
	.st79{fill:#59E694;}
	.st80{fill:#434244;}
	.st81{fill:#BC936C;}
	.st82{fill:#C69F7B;}
	.st83{fill:#AD8863;}
	.st84{fill:#6F5E4B;}
	.st85{fill:#786652;}
	.st86{fill:#917056;}
	.st87{fill:#9653FF;}
	.st88{fill:#FCAB78;}
	.st89{fill:#5ED95E;}
	.st90{fill:#FDD75E;}
	.st91{fill:#FB5FFF;}
	.st92{fill:#2144B4;}
	.st93{fill:#7F7F7F;}
	.st94{fill:#8C8E91;}
	.st95{fill:#B5B7B9;}
	.st96{fill:#DBC5A8;}
	.st97{fill:#C7B085;}
	.st98{fill:#E882DC;}
	.st99{fill:#D365C4;}
	.st100{fill:#8B476B;}
	.st101{fill:#8FD096;}
	.st102{fill:#79BE7A;}
	.st103{fill:#4B9688;}
	.st104{fill:#2F7A6F;}
	.st105{fill:#E2983A;}
	.st106{fill:#F6A849;}
	.st107{fill:#F6A6B4;}
	.st108{fill:#F8B257;}
	.st109{fill:#DD8D33;}
	.st110{fill:#F09C40;}
	.st111{fill:#F2A54C;}
	.st112{fill:#B67738;}
	.st113{fill:#FFF272;}
	.st114{fill:#F9EDDF;}
	.st115{fill:#4CA0F5;}
	.st116{fill:#54AAF5;}
	.st117{fill:#4381D7;}
	.st118{fill:#4873C4;}
	.st119{fill:#FB3556;}
	.st120{opacity:0.1;fill:#434244;}
	.st121{fill:#F0D1B1;}
	.st122{fill:#DBB293;}
	.st123{fill:#E1C5A7;}
	.st124{fill:#C4A185;}
	.st125{fill:#99766F;}
	.st126{fill:#FDD35D;}
	.st127{fill:#FDBC4E;}
	.st128{fill:#E5E6E7;}
	.st129{fill:#EFAF2B;}
	.st130{fill:#F4C13C;}
	.st131{fill:#ED9727;}
	.st132{fill:#DD621C;}
	.st133{fill:#E97E23;}
	.st134{fill:#EC9426;}
	.st135{fill:#FDDC78;}
	.st136{fill:#9C6B3E;}
	.st137{fill:#FC81D8;}
	.st138{fill:#FCA1E8;}
	.st139{fill:#AF84D8;}
	.st140{fill:#E162D8;}
	.st141{fill:#9C6AD8;}
	.st142{fill:#E9EAEA;}
	.st143{fill:#6C5592;}
</style>
<g>
	<g>
		<g>
			<path class="st137" d="M96,140.995v4c0,1.66-1.34,3-3,3H83v-10v-40H15v40v10H5c-1.66,0-3-1.34-3-3v-4h7v-6.99H2v-80.01
				c0-1.66,1.34-3,3-3h16.99v30c0,2.76,2.24,5,5,5H40h8h22c2.76,0,5-2.24,5-5v-24l20.12,20.12c0.56,0.56,0.88,1.33,0.88,2.12v54.77
				h-7v6.99H96z"/>
		</g>
		<g>
			<rect x="89" y="134.005" class="st138" width="7" height="6.99"/>
		</g>
		<g>
			<rect x="15" y="137.995" class="st139" width="68" height="10"/>
		</g>
		<g>
			<rect x="15" y="97.995" class="st4" width="68" height="40"/>
		</g>
		<g>
			<path class="st4" d="M75,56.995v24c0,2.76-2.24,5-5,5H48h-8c-2.76,0-5-2.24-5-5v-30h32.76c0.79,0,1.56,0.32,2.12,0.88L75,56.995z
				 M64,76.995v-17c0-1.1-0.9-2-2-2h-5c-1.1,0-2,0.9-2,2v17c0,1.11,0.9,2,2,2h5C63.1,78.995,64,78.105,64,76.995z"/>
		</g>
		<g>
			<path class="st139" d="M64,59.995v17c0,1.11-0.9,2-2,2h-5c-1.1,0-2-0.89-2-2v-17c0-1.1,0.9-2,2-2h5
				C63.1,57.995,64,58.895,64,59.995z"/>
		</g>
		<g>
			<path class="st139" d="M40,85.995H26.99c-2.76,0-5-2.24-5-5v-30H35v30C35,83.755,37.24,85.995,40,85.995z"/>
		</g>
		<g>
			<g>
				<path class="st140" d="M22,53.995c0-1.657-1.665-2.994-0.01-2.999l3-0.001H5c-1.66,0-3,1.34-3,3v80.01h7v6.99H2v4
					c0,1.66,1.34,3,3,3h10v-10v-40h7V53.995z"/>
			</g>
		</g>
		<g>
			<g>
				<path class="st138" d="M96,134.005v-54.77c0-0.79-0.32-1.56-0.88-2.12L75,56.995v18v23h8v40v10h10c1.66,0,3-1.34,3-3v-4h-7
					v-6.99H96z"/>
			</g>
		</g>
		<g>
			<path class="st141" d="M29,80.995v-30h-7.01v30c0,2.76,2.24,5,5,5H34C31.24,85.995,29,83.755,29,80.995z"/>
		</g>
		<g>
			<g>
				<path class="st142" d="M44,80.995v-30h-9v30c0,2.76,2.24,5,5,5h8h1C46.24,85.995,44,83.755,44,80.995z"/>
			</g>
		</g>
		<g>
			<rect x="2" y="134.005" class="st140" width="7" height="6.99"/>
		</g>
		<g>
			<rect x="15" y="97.995" class="st142" width="11" height="40"/>
		</g>
		<g>
			<rect x="15" y="137.995" class="st141" width="11" height="10"/>
		</g>
		<g>
			<path class="st141" d="M60,76.995v-17c0-1.1,0.9-2,2-2h-5c-1.1,0-2,0.9-2,2v17c0,1.11,0.9,2,2,2h5
				C60.9,78.995,60,78.105,60,76.995z"/>
		</g>
	</g>
	<g>
		<path class="st143" d="M96.534,75.701l-20.119-20.12c0,0,0,0-0.001-0.001l-5.12-5.12c-0.933-0.931-2.221-1.465-3.534-1.465H5
			c-2.757,0-5,2.243-5,5v80.01v6.99v4c0,2.757,2.243,5,5,5h10h68h10c2.757,0,5-2.243,5-5v-4v-6.99v-54.77
			C98,77.92,97.466,76.632,96.534,75.701z M94,138.995h-3v-2.99h3V138.995z M68.466,53.289L73,57.823v23.171c0,1.654-1.346,3-3,3H48
			h-8c-1.654,0-3-1.346-3-3v-28h30.76C68.018,52.995,68.282,53.105,68.466,53.289z M23.99,52.995H33v28c0,1.074,0.25,2.089,0.685,3
			H26.99c-1.654,0-3-1.346-3-3V52.995z M4,136.004h3v2.99H4V136.004z M81,135.995H17v-36h64V135.995z M17,139.995h64v6H17V139.995z
			 M93,145.995h-8v-48c0-1.104-0.896-2-2-2H15c-1.104,0-2,0.896-2,2v48H5c-0.552,0-1-0.448-1-1v-2h5c1.104,0,2-0.896,2-2v-6.99
			c0-1.104-0.896-2-2-2H4v-78.01c0-0.551,0.448-1,1-1H19.99v28c0,3.859,3.141,7,7,7H40h8h22c3.859,0,7-3.141,7-7V61.823
			l16.705,16.705C93.89,78.713,94,78.978,94,79.235v52.77h-5c-1.104,0-2,0.896-2,2v6.99c0,1.104,0.896,2,2,2h5v2
			C94,145.546,93.552,145.995,93,145.995z"/>
		<path class="st143" d="M57,80.995h5c2.206,0,4-1.794,4-4v-17c0-2.206-1.794-4-4-4h-5c-2.206,0-4,1.794-4,4v17
			C53,79.201,54.794,80.995,57,80.995z M57,59.995h5l0.002,17H57V59.995z"/>
		<path class="st143" d="M25,109.995h48c1.104,0,2-0.896,2-2s-0.896-2-2-2H25c-1.104,0-2,0.896-2,2S23.896,109.995,25,109.995z"/>
		<path class="st143" d="M25,119.995h48c1.104,0,2-0.896,2-2s-0.896-2-2-2H25c-1.104,0-2,0.896-2,2S23.896,119.995,25,119.995z"/>
		<path class="st143" d="M25,129.995h48c1.104,0,2-0.896,2-2s-0.896-2-2-2H25c-1.104,0-2,0.896-2,2S23.896,129.995,25,129.995z"/>
	</g>
</g>
</svg>
